<svg id="Layer_3" enable-background="new 0 0 64 64" height="512" viewBox="0 0 64 64" width="512" xmlns="http://www.w3.org/2000/svg"><path d="m2 51h60v11h-60z" fill="#a1cdfb"/><path d="m31 37h-2v-1.116c0-6.322-1.4-12.699-4.05-18.439l-1.858-4.026 1.816-.838 1.858 4.026c2.77 6.001 4.234 12.667 4.234 19.277z" fill="#976947"/><path d="m38 37.227h-2v-1.227c0-.073.008-.146.023-.217 1.359-6.112 3.952-11.751 7.708-16.759l.469-.624 1.6 1.2-.469.625c-3.561 4.749-6.028 10.094-7.331 15.885z" fill="#976947"/><path d="m37 12-2.848-4.985c-.659-1.153-1.843-1.898-3.153-2.003l.001-.012-.813-1.219c-.741-1.113-1.99-1.781-3.328-1.781h-.387c-1.515 0-2.9.856-3.578 2.211l-1.894 3.789-4-1h-1.05c-2.734 0-4.95 2.216-4.95 4.95 0 1.313.521 2.572 1.45 3.5l2.55 2.55s.223.218.223.218c.257.995.732 1.929 1.4 2.729l3.377 4.053v-.247c0-3.751 1.11-7.418 3.191-10.539l.809-1.214.063.021c3.881 1.294 7.325 3.644 9.944 6.787l.993 1.192v-4.515c0-.982-.242-1.939-.691-2.793l.691.308z" fill="#669e4f"/><path d="m34 14 2.243-2.243c1.125-1.125 2.651-1.757 4.242-1.757h.029c1.591 0 3.117.632 4.243 1.757l2.243 2.243.243-.243c1.125-1.125 2.651-1.757 4.242-1.757h.677c2.12 0 3.838 1.718 3.838 3.838 0 .758-.224 1.498-.645 2.129l-1.355 2.033-.009.001c.006.087.009.175.009.264v.263c0 1.515-.856 2.9-2.211 3.578l-1.789.894s-.369.187-.369.187c-.373 1.015-1.018 1.923-1.883 2.615l-2.748 2.198v-11h-.233c-3.645 0-7.093 1.657-9.37 4.504l-.397.496v-2.515c0-1.591.632-3.117 1.757-4.243l.485-.485c1.126-1.125 2.652-1.757 4.243-1.757h2.515" fill="#78b75b"/><path d="m52 44-1.043-.927c-5.126-4.556-11.745-7.073-18.603-7.073h-.709c-6.858 0-13.477 2.517-18.602 7.073l-1.043.927" fill="#c18e59"/><path d="m57 61c-2.206 0-4-1.794-4-4h-2c0 2.206-1.794 4-4 4s-4-1.794-4-4h-2c0 2.206-1.794 4-4 4s-4-1.794-4-4h-2c0 2.206-1.794 4-4 4s-4-1.794-4-4h-2c0 2.206-1.794 4-4 4s-4-1.794-4-4h-2c0 2.206-1.794 4-4 4s-4-1.794-4-4h-2c0 3.309 2.691 6 6 6 2.086 0 3.924-1.071 5-2.69 1.076 1.62 2.914 2.69 5 2.69s3.924-1.071 5-2.69c1.076 1.62 2.914 2.69 5 2.69s3.924-1.071 5-2.69c1.076 1.62 2.914 2.69 5 2.69s3.924-1.071 5-2.69c1.076 1.62 2.914 2.69 5 2.69s3.924-1.071 5-2.69c1.076 1.62 2.914 2.69 5 2.69 3.309 0 6-2.691 6-6h-2c0 2.206-1.794 4-4 4z" fill="#66acd7"/><path d="m7 55c2.086 0 3.924-1.071 5-2.69 1.076 1.62 2.914 2.69 5 2.69s3.924-1.071 5-2.69c1.076 1.62 2.914 2.69 5 2.69s3.924-1.071 5-2.69c1.076 1.62 2.914 2.69 5 2.69s3.924-1.071 5-2.69c1.076 1.62 2.914 2.69 5 2.69s3.924-1.071 5-2.69c1.076 1.62 2.914 2.69 5 2.69 3.309 0 6-2.691 6-6h-2c0 2.206-1.794 4-4 4s-4-1.794-4-4h-2c0 2.206-1.794 4-4 4s-4-1.794-4-4h-2c0 2.206-1.794 4-4 4s-4-1.794-4-4h-2c0 2.206-1.794 4-4 4s-4-1.794-4-4h-2c0 2.206-1.794 4-4 4s-4-1.794-4-4h-2c0 2.206-1.794 4-4 4s-4-1.794-4-4h-2c0 3.309 2.691 6 6 6z" fill="#66acd7"/><path d="m8 43h48v2h-48z" fill="#976947"/></svg>